<svg xmlns="http://www.w3.org/2000/svg" width="120" height="120"><path d="M58.047 1.086c-1.754.086-3.3.2-4.7.355-16.199 1.801-30.89 10.274-40.726 23.489-3.23 4.336-5.93 9.312-7.86 14.472-4.921 13.184-4.921 27.953 0 41.141 2.973 7.965 7.524 15.027 13.571 21.07 5.473 5.473 11.746 9.7 18.832 12.688a58.8 58.8 0 0 0 16.184 4.199c2.507.277 3.91.36 6.629.36 2.722 0 4.12-.083 6.628-.36 13.243-1.465 25.52-7.387 35.016-16.887 6.05-6.043 10.598-13.105 13.57-21.07 4.922-13.188 4.922-27.957 0-41.14-2.972-7.965-7.52-15.032-13.57-21.075C91.461 8.172 78.184 2.145 63.871 1.184c-1.21-.075-4.914-.141-5.824-.098m4.785 1.887c10.871.562 21.074 4.07 29.93 10.293 2.758 1.933 4.906 3.757 7.535 6.386 3.773 3.762 6.543 7.356 9.117 11.805 8.828 15.242 10.07 33.938 3.352 50.23-2.325 5.633-5.403 10.649-9.504 15.47-1.235 1.464-4.633 4.863-6.098 6.1-7.672 6.52-16.375 10.766-25.973 12.673-16.312 3.25-33.144-.715-46.187-10.868-1.957-1.519-3.32-2.734-5.348-4.769-3.773-3.766-6.543-7.356-9.117-11.809C1.711 73.242.473 54.551 7.191 38.258c2.32-5.637 5.399-10.653 9.5-15.473 1.235-1.465 4.633-4.863 6.098-6.101 5.5-4.676 11.3-8.055 17.938-10.45C47.62 3.742 55.44 2.586 62.832 2.973m0 0" style="stroke:none;fill-rule:nonzero;fill:red;fill-opacity:1"/><path d="M65.668 4.8c-.191.098-.332.2-.32.227.015.028.465.637 1.007 1.352.934 1.219 1.008 1.3 1.278 1.34.152.031.293.039.316.015.043-.043-1.781-3.07-1.867-3.093-.039-.012-.227.058-.414.16M60.906 7.457c0 .156-.015.336-.035.383-.035.086.277.133 1.8.23 1.013.075 1.864.145 1.884.172.023.028 0 .621-.051 1.317-.098 1.398-.133 1.496-.59 1.754-.328.187-.781.207-1.086.042-.238-.12-.496-.585-.496-.882 0-.102.066-.317.137-.48.222-.477.715-.641 1.258-.419l.25.106v-.36c0-.312-.024-.363-.184-.418-.309-.125-1.172-.086-1.496.063a1.61 1.61 0 0 0-.977 1.5c0 1.035.758 1.726 1.899 1.723.246-.012.566-.051.722-.11.157-.058.305-.11.336-.11.028 0 .035.34.008.755l-.043.75h1.008l.043-.453c.047-.504.328-4.442.328-4.641 0-.11.035-.121.27-.078.144.027.277.07.3.101.024.024.235.075.485.106l.453.05-.047.227c-.074.457-.605 4.922-.586 4.942.031.03 1.012.171 1.024.152 0-.008.148-1.172.32-2.586l.316-2.574.301.023c.164.016.305-.008.328-.035.02-.027.05-.2.055-.379l.031-.32-1.242-.153c-.68-.085-1.258-.183-1.29-.226-.019-.035-1.034-.137-2.253-.223l-2.695-.191-.485-.05ZM54.621 7.648v.395h4.356v1H57.57c-1.605 0-1.87.066-2.152.516-.332.543-.258 1.191.254 2.046.246.422 1.328 1.653 1.441 1.653.028 0 .2-.117.38-.25l.32-.25-.434-.45c-.703-.718-1.188-1.542-1.188-2.023 0-.094.067-.234.141-.312.133-.13.238-.145 1.395-.145h1.25v3.43h1V8.043h.644v-.785h-6ZM50.098 8.207l-3.63.578.052.328c.023.18.066.344.093.375.02.028.801-.074 1.719-.222.926-.153 1.688-.266 1.703-.254.055.039.442 2.652.406 2.789-.05.207-.765.668-1.043.668-.164 0-.3-.07-.5-.278-.242-.242-.277-.312-.277-.605 0-.188.05-.43.106-.543.12-.234.57-.5.859-.5.21 0 .219-.066.035-.43-.172-.328-.258-.347-.8-.14-.766.285-1.2.828-1.2 1.507 0 .598.125.915.55 1.329l.38.37-.29.192c-.156.11-.284.215-.284.234 0 .032.144.196.32.368.289.285.328.297.445.207.07-.067.336-.293.602-.516.355-.305 1.183-.836 1.312-.836.008 0 .055.309.114.68.07.558.105.672.199.648.066-.02.3-.054.527-.086.402-.043.414-.05.379-.234-.113-.535-.398-2.473-.398-2.68 0-.183.07-.32.312-.586.273-.304.344-.347.602-.347.359 0 .62.218.742.62.117.384-.02.93-.367 1.458l-.282.422.407.207.398.199.168-.2c.09-.117.285-.437.426-.722.3-.617.394-1.32.222-1.734-.44-1.059-1.804-1.364-2.636-.594l-.192.18-.078-.465a6 6 0 0 1-.082-.606c0-.172-.11-.144 1.73-.437.7-.11 1.294-.215 1.317-.246.027-.02.02-.192 0-.367-.05-.293-.074-.325-.246-.317-.105.008-1.824.27-3.82.586M74.457 9.414a1.8 1.8 0 0 0-.121.356c0 .023.332.168.746.316.66.242.758.3.824.484.156.457.055.93-.258 1.223-.156.14-.261.176-.578.176-.215 0-.476-.047-.601-.106-.207-.105-.207-.105-.285.086-.13.328-.051 1.153.152 1.559.219.457.719.957 1.176 1.176.293.144.465.18.945.18.328 0 .59.023.59.05s-.094.305-.215.629c-.113.32-.21.605-.21.637 0 .054.917.398.952.355.012-.012.352-.941.754-2.062.406-1.125.797-2.211.879-2.418.148-.407.121-.39.598-.254.12.035.172-.016.273-.293.07-.18.113-.344.098-.36-.028-.027-5.27-1.949-5.492-2.011-.079-.024-.149.058-.227.277m3.29 1.64c.323.118.585.255.585.29 0 .043-.2.62-.434 1.277-.398 1.094-.464 1.223-.687 1.36a1.4 1.4 0 0 1-.512.183c-.715.102-1.578-.543-1.578-1.164 0-.223 0-.227.422-.258.832-.055 1.363-.672 1.363-1.586 0-.363.012-.406.13-.363.062.027.382.14.71.262M39.797 11.156c-.621.258-1.149.48-1.168.492-.043.051.21.68.277.68.035 0 .215-.066.399-.14.187-.086.367-.122.394-.094s.477 1.105 1 2.39c.512 1.293.977 2.344 1.012 2.344.121 0 .91-.316.91-.363 0-.024-.422-1.086-.937-2.36-.512-1.27-.95-2.347-.973-2.39-.012-.043.102-.137.258-.2.168-.066.293-.128.293-.144 0-.05-.278-.684-.297-.684-.016.004-.54.211-1.168.47M80.2 11.629l-.145.351.336.149c.187.086.863.387 1.507.672.649.293 1.18.523 1.196.508.027-.036.312-.621.312-.645 0-.023-.328-.18-.726-.355-.41-.18-1.098-.489-1.54-.688l-.792-.348ZM35.77 13.113c-1.387.739-2.56 1.38-2.594 1.414-.07.075.18.657.277.657.024 0 .79-.391 1.688-.864 1.3-.683 1.648-.847 1.707-.77.195.302.351.657.293.716-.036.035-.399.242-.805.457-.414.218-.832.468-.918.554-.434.403-.57 1.16-.305 1.68.235.457.735.852 1.242.973l.2.047-.442.558.38.215c.206.121.398.219.429.219.02 0 .207-.246.398-.555.32-.492.395-.57.672-.648.172-.051.45-.172.63-.258l.32-.164.39.312c.215.172.445.317.5.317.059 0 .293-.11.516-.239l.41-.234-.54-.316c-.679-.399-.706-.426-.597-.743.149-.457-.266-1.043-.73-1.043-.25 0-.43.172-1.149 1.094-.543.703-.664.75-1.199.48-.461-.238-.695-.773-.496-1.144.035-.07.594-.406 1.23-.75.645-.344 1.18-.637 1.2-.648.015-.024-.141-.36-.348-.75-.43-.817-.445-.758.226-1.075.188-.085.336-.183.336-.218 0-.11-.285-.63-.343-.63-.028.005-1.184.614-2.578 1.356m0 0" style="stroke:none;fill-rule:nonzero;fill:red;fill-opacity:1"/><path d="M83.578 13.078c-.101.18-.18.336-.164.352.012.015.848.5 1.848 1.078 1 .57 1.828 1.055 1.843 1.07.051.043-.43.824-.507.824-.043 0-.559-.28-1.149-.625-1.199-.691-1.488-.812-1.785-.754-.11.02-.223.004-.25-.03-.078-.13-2.957-1.38-3.164-1.38-.145 0-.23.051-.281.172-.149.32.281 1.766.601 2.035.192.157.328.043.547-.465.137-.293.254-.457.309-.433l.742.336.66.3-.125.227c-.191.352-.16 2.031.047 2.785.086.317.172.578.191.602.016.015.215 0 .442-.035.308-.047.41-.086.387-.168-.25-.934-.301-1.297-.278-1.934.016-.57.051-.734.172-.898.27-.367.27-.367 2.113.699l.48.277-.866 1.508c-.649 1.129-.891 1.492-.977 1.465-.066-.016-.242-.086-.402-.14-.383-.145-1.063-.16-1.012-.016.02.054.063.222.094.363.047.277.062.285.469.36.152.019.363.12.484.218.285.242.285.535.008.82-.172.172-.27.207-.543.207-.813 0-1.688-.89-1.969-2.027-.047-.18-.102-.328-.121-.328-.024 0-.23.05-.461.113-.477.137-.469.106-.125.864.598 1.3 1.59 2.128 2.672 2.214.941.082 1.683-.535 1.683-1.39 0-.43-.066-.594-.386-.938l-.22-.234.415.226c.227.133.418.223.434.207.015-.011.566-.964 1.222-2.097.656-1.145 1.235-2.145 1.301-2.238l.098-.16.234.148c.133.078.258.144.281.144.02 0 .121-.144.215-.324l.184-.32-.477-.281c-.265-.149-1.328-.762-2.37-1.364A153 153 0 0 1 84 12.887l-.23-.137ZM31.762 15.477c-.528.351-1.008.668-1.063.703-.078.05-.058.12.102.383l.191.34.383-.255.395-.246.457.711c.257.395.464.739.464.774 0 .054-.117.14-.73.543l-.191.12-.5-.741c-.555-.832-.758-.98-1.344-.98-.613.007-1.113.327-1.344.87-.14.352-.133.602.031.957.192.43.328.48.664.266l.27-.18-.176-.215c-.23-.27-.23-.511 0-.742.328-.328.504-.226 1.055.578.265.387.48.727.48.75s-.164.145-.36.27c-.347.222-.417.375-.292.574.086.145.96.363 1.637.422.507.035.609.02.73-.086.191-.172.184-.227-.11-.656-.132-.207-.25-.403-.25-.43 0-.031.208-.191.458-.36l.453-.292.672 1.039.718 1.113c.043.066.442-.137.801-.398.137-.102.078-.204-1.238-2.23a169 169 0 0 1-1.406-2.2c-.012-.05.086-.16.222-.25l.258-.164-.222-.317a2.6 2.6 0 0 0-.235-.312c-.008 0-.449.293-.98.64M57.297 18.227c-2.82.214-5.098.582-7.64 1.222-6.044 1.524-11.645 4.395-16.618 8.524-1.14.957-4.105 3.918-5.062 5.062-5.079 6.113-8.293 13.285-9.387 20.938-.32 2.218-.363 2.898-.363 6 0 3.097.043 3.777.363 6 1.094 7.648 4.308 14.82 9.387 20.933.957 1.145 3.921 4.106 5.062 5.067 6.066 5.027 13.203 8.25 20.723 9.355 2.402.348 3.043.395 6.215.395s3.816-.047 6.214-.395c7.524-1.105 14.657-4.328 20.723-9.355 1.14-.961 4.106-3.922 5.063-5.067 5.078-6.113 8.293-13.285 9.386-20.933.32-2.223.364-2.903.364-6 0-3.102-.043-3.782-.364-6-1.093-7.653-4.308-14.825-9.386-20.938-.957-1.144-3.922-4.105-5.063-5.062-4.973-4.13-10.574-7-16.617-8.524-2.106-.535-3.75-.828-6.106-1.094-.984-.105-5.921-.199-6.894-.128m4.273 1.925c2.992.621 5.77 2.739 8.297 6.356.988 1.414 2.66 4.363 2.59 4.562-.023.051-.152.114-.285.145-.508.09-2.844.86-4.336 1.414-2.117.785-3.711 1.476-5.945 2.57l-1.914.938-1.907-.938c-2.242-1.094-3.836-1.785-5.953-2.57-1.488-.555-3.824-1.324-4.336-1.414-.312-.059-.347-.164-.168-.516l.145-.277.535-.035c.984-.067 1.762-.594 2.176-1.48.16-.337.187-.5.187-1.009 0-.539-.027-.664-.23-1.07l-.227-.465.172-.261c.098-.145.39-.532.656-.86 2.5-3.105 5.172-4.844 8.016-5.199.613-.078 1.879-.027 2.527.11m-8.558.528c-.04.035-.278.234-.535.441-1.114.922-2.309 2.195-3.356 3.586l-.5.672-.523.035c-.973.063-1.723.559-2.137 1.398-.207.422-.234.547-.234 1.086 0 .547.023.668.234 1.086l.238.48-.293.571c-.156.32-.328.578-.379.578-.043 0-.5-.078-1.007-.175-2.32-.461-4.036-.633-6.184-.633-1.816 0-2.879.11-4.344.414-.457.101-.836.168-.851.152-.043-.043 1.672-1.476 2.687-2.242 4.758-3.606 9.871-5.957 15.828-7.27 1.114-.246 1.473-.293 1.356-.18m14.98.12c5.969 1.243 11.313 3.673 16.133 7.329 1.016.766 2.73 2.2 2.688 2.242-.016.016-.395-.05-.848-.152-1.465-.305-2.531-.414-4.348-.414-2.148 0-3.86.172-6.183.633-.508.097-.965.175-1.008.175-.051 0-.297-.414-.551-.922-1.836-3.648-4.078-6.656-6.398-8.57-.622-.516-.622-.508-.48-.508.066 0 .515.086.995.188M40.297 31.685c1.168.101 2.3.257 3.5.48.55.102 1.008.191 1.023.2.016.015-.152.464-.363 1.007-1.773 4.5-3.125 10-3.86 15.73l-.171 1.313-1.32 1.328a69 69 0 0 0-5.188 5.824c-.367.454-.676.832-.691.832-.008 0-.364-.52-.793-1.164-2.278-3.414-4.121-7.129-5.02-10.12-.644-2.141-.887-3.669-.887-5.536 0-2.465.563-4.363 1.77-5.976 1.71-2.274 4.629-3.645 8.394-3.938.735-.055 2.809-.043 3.606.02m44.11.101c5.077.758 8.128 3.422 8.898 7.793.172.973.172 2.977 0 4.145-.586 4.047-2.586 8.715-5.785 13.511-.43.645-.786 1.164-.793 1.164-.016 0-.32-.378-.692-.832-1.582-1.996-3.23-3.836-5.215-5.851-1.07-1.078-1.343-1.403-1.343-1.55 0-.294-.336-2.716-.57-4.122-.75-4.508-1.966-9.008-3.407-12.672-.215-.543-.379-.992-.367-1.008.117-.093 3.094-.558 4.379-.668 1.031-.101 3.988-.039 4.894.09m-36.602 1.328c2.828.828 5.965 2.043 8.992 3.5.668.317 1.187.586 1.164.61-.012.02-.719.449-1.563.949-4.707 2.82-9.265 6.156-13.171 9.644-.352.313-.649.563-.664.547-.036-.035.234-1.75.527-3.328a62.4 62.4 0 0 1 2.137-8.387c.644-1.933 1.378-3.82 1.5-3.82.043 0 .535.129 1.078.285m25.957.836c1.265 3.2 2.402 7.258 3.101 11.086.293 1.578.563 3.293.528 3.328-.012.016-.305-.234-.664-.547-3.907-3.488-8.465-6.824-13.172-9.644-.844-.5-1.551-.93-1.563-.95-.101-.1 4.09-1.98 6.09-2.738 1.852-.699 4.766-1.64 5.117-1.648.086-.008.235.3.563 1.113m-12.914 4.77c5.074 2.808 10.703 6.875 15.414 11.144.492.446 1.031.95 1.203 1.121l.305.317.097 1.105c.238 2.617.29 3.973.29 7.567 0 3.59-.052 4.949-.29 7.562l-.097 1.11-.305.312c-.172.172-.711.68-1.203 1.121-4.723 4.277-10.336 8.336-15.426 11.149l-.86.472-.859-.472c-5.09-2.813-10.703-6.872-15.426-11.149a40 40 0 0 1-1.199-1.121l-.308-.312-.098-1.11c-.238-2.613-.29-3.972-.29-7.562 0-3.594.052-4.95.29-7.567l.098-1.105.308-.317a46 46 0 0 1 1.2-1.12 86.4 86.4 0 0 1 13.535-10.048c1.109-.668 2.68-1.558 2.742-1.558.023 0 .418.207.879.46m-36.02 5.18c.625 4.566 3 9.988 6.684 15.25.293.421.535.788.535.824s-.242.398-.535.82c-2.778 3.969-4.942 8.285-5.973 11.914-.512 1.82-.762 3.293-.84 4.941-.043 1-.043 1-.172.809-.215-.312-1.285-2.656-1.726-3.773a40.5 40.5 0 0 1-2.465-9.532c-.246-1.93-.309-3.043-.309-5.18s.063-3.25.309-5.179a40.5 40.5 0 0 1 2.465-9.535c.441-1.113 1.512-3.457 1.726-3.774.13-.191.13-.191.172.809.028.55.086 1.273.13 1.605m71.121-1.391c1.293 2.699 2.18 5.156 2.848 7.926.808 3.308 1.129 6.035 1.129 9.539 0 2.136-.063 3.25-.305 5.18a40.9 40.9 0 0 1-2.465 9.53c-.441 1.118-1.515 3.462-1.73 3.774l-.13.191-.01-.57c-.067-2.176-.587-4.766-1.415-7.07-.18-.48-.32-.895-.32-.922 0-.023.125-.207.281-.414.867-1.145.652-2.7-.488-3.57-.332-.258-1.067-.489-1.54-.489h-.363l-.535-.941a59 59 0 0 0-2.508-3.938c-.27-.382-.492-.726-.492-.761 0-.032.242-.403.535-.825 2.778-3.968 4.942-8.285 5.973-11.914.527-1.87.848-3.863.848-5.25 0-.476.023-.648.078-.613.05.027.324.535.61 1.137M40.156 53.523c-.07.434-.187 2.899-.23 5.055-.035 2.129.05 5.559.187 7.32.028.375.043.696.02.715-.059.075-2.52-2.644-3.797-4.175-1.023-1.231-1.93-2.387-1.93-2.465 0-.118 1.684-2.215 2.969-3.688.84-.969 2.695-2.957 2.758-2.957.027 0 .039.086.023.195m40.801.965c.586.64 1.313 1.434 1.606 1.77 1.144 1.308 2.988 3.597 2.988 3.715 0 .078-1.188 1.586-2.074 2.64-1.25 1.477-3.606 4.067-3.657 4-.023-.02-.007-.34.02-.715.137-1.761.222-5.191.187-7.32-.043-2.156-.156-4.621-.23-5.055-.012-.109-.004-.195.023-.195.035 0 .543.524 1.137 1.16m-47.039 7.89c1.586 2 3.25 3.864 5.187 5.821l1.32 1.328.173 1.317c.734 5.726 2.086 11.226 3.859 15.726.211.543.379.996.363 1.008-.02.016-1.785.344-2.222.414-.172.028-.22-.008-.336-.23-.07-.14-.27-.39-.442-.555-1.222-1.187-3.285-.793-3.984.758l-.18.379-.68-.043c-5.933-.43-9.476-3.145-10.328-7.938-.171-.968-.171-2.976 0-4.144.586-4.047 2.586-8.711 5.786-13.52.43-.636.785-1.156.793-1.156.015 0 .324.379.691.836m53.645.392c.808 1.214 1.93 3.058 2.164 3.566.12.258.12.266-.079.68-.187.375-.207.492-.207 1.132 0 .645.02.754.2 1.094.37.715 1.078 1.23 1.82 1.344.36.05.352.035.852 1.527.433 1.293.777 2.688.964 3.895.2 1.312.215 3.305.028 4.355-.692 3.88-3.184 6.45-7.254 7.457-1.274.317-2.196.438-3.79.489-1.956.054-3.831-.102-6.105-.532a22 22 0 0 1-1.023-.199c-.012-.012.152-.465.367-1.008 1.441-3.664 2.656-8.164 3.406-12.672.235-1.406.57-3.828.57-4.117 0-.152.274-.476 1.344-1.55 1.985-2.016 3.633-3.86 5.215-5.852.371-.457.676-.836.692-.836.007 0 .386.555.835 1.227m-43.13 10.41c3.794 3.242 8.028 6.277 12.188 8.718.684.407 1.277.766 1.313.793.136.125-3.786 1.903-6.063 2.766-1.836.691-4.832 1.656-5.144 1.656-.122 0-.856-1.883-1.5-3.82-1.079-3.238-1.836-6.414-2.465-10.262-.114-.73-.215-1.375-.215-1.418 0-.05.23.121.508.367.28.247.902.793 1.379 1.2m32.727.027c-.648 3.977-1.555 7.621-2.71 10.922-.579 1.664-1.122 2.984-1.223 2.984-.313 0-3.309-.965-5.145-1.656-1.867-.707-6.105-2.602-6.105-2.727 0-.015.183-.136.414-.265 4.789-2.723 10.316-6.723 14.656-10.621.18-.156.332-.266.344-.23.015.027-.094.75-.23 1.593m-15.754 11.3a63 63 0 0 0 5.27 2.364c1.55.613 4.273 1.55 5.222 1.785.286.078.543.172.559.223.043.105-.715 1.543-1.488 2.844-2.586 4.355-5.707 7.14-8.922 7.957-4.184 1.062-8.379-1.121-11.961-6.246-.965-1.375-2.66-4.364-2.586-4.555.012-.05.27-.145.555-.223.949-.234 3.672-1.172 5.23-1.785a63 63 0 0 0 5.297-2.383c.707-.36 1.332-.652 1.379-.652.05-.008.703.3 1.445.672M46.078 90.25c1.863 3.707 4.184 6.8 6.527 8.68.25.199.415.37.38.386-.044.012-.493-.058-.993-.168-5.972-1.234-11.336-3.668-16.164-7.332-1.016-.765-2.73-2.203-2.687-2.246.015-.011.394.051.843.153 1.043.215 1.72.304 2.914.382.95.06.965.067 1.11.266.242.344.613.664.996.871.328.172.445.195 1.082.195.574 0 .777-.03 1.039-.152.453-.207.895-.629 1.145-1.07l.207-.363.628-.086a25 25 0 0 0 1.407-.258c1.18-.25 1.035-.317 1.566.742m29.356-.742c2.312.457 4.035.629 6.183.629 1.809 0 2.867-.102 4.348-.414.453-.102.832-.164.847-.153.043.043-1.671 1.48-2.687 2.246-4.828 3.664-10.191 6.098-16.164 7.332-.5.11-.95.18-.992.168-.035-.015.129-.187.379-.386 2.343-1.88 4.664-4.973 6.527-8.68.254-.508.5-.922.55-.922.044 0 .5.078 1.009.18m0 0" style="stroke:none;fill-rule:nonzero;fill:red;fill-opacity:1"/><path d="M55.613 52.656c-1.265.438-1.984 1.867-1.992 3.91 0 1.028.129 1.672.5 2.45.418.87.856 1.242 2.32 1.957 1.356.664 1.614.89 1.758 1.554.156.782-.144 1.758-.68 2.196-.355.285-1.078.343-1.527.113-.508-.258-.953-1.102-1.058-2.027-.07-.594-.051-.586-.88-.438l-.718.121v.328c0 .18.047.61.105.957.313 1.79.95 2.895 1.95 3.387.379.188.464.2 1.265.2.793 0 .887-.012 1.266-.2.797-.394 1.379-1.215 1.71-2.441.122-.473.153-.782.157-1.75.012-1.395-.098-1.996-.535-2.86-.414-.82-.82-1.156-2.25-1.855-.625-.309-1.258-.653-1.383-.758-.316-.273-.5-.691-.5-1.172 0-.933.606-1.492 1.535-1.414.7.059 1.121.57 1.278 1.57l.078.5.68-.05c1-.07.94-.028.89-.625-.156-1.766-.812-3.051-1.805-3.524-.343-.172-.515-.2-1.12-.222-.516-.012-.81.015-1.044.093M45.547 59.973v7.21h1.5l.016-4.69.023-4.7 1.492 4.32c.82 2.38 1.555 4.492 1.629 4.696l.133.375h1.566V52.758h-1.43v4.797c0 2.644-.027 4.773-.054 4.738-.04-.043-.781-2.164-1.66-4.715-.871-2.555-1.606-4.687-1.621-4.738-.028-.055-.258-.082-.813-.082h-.781ZM61.285 58.238c.035 6.02.035 6.075.477 7.219.351.914 1 1.613 1.668 1.813.168.05.656.093 1.12.093.684 0 .876-.027 1.15-.148.878-.406 1.48-1.344 1.75-2.746.155-.778.234-3.442.241-7.84v-3.871h-1.644v4.98c0 2.739-.035 5.219-.07 5.504-.086.68-.364 1.258-.707 1.48-.707.47-1.622.212-2.024-.566-.367-.726-.363-.636-.39-6.207l-.028-5.191h-1.574ZM68.836 53.973v1.21h2.426v12h1.574v-12h2.43v-2.425h-6.43ZM94.941 18.387c-.336.156-.82.664-.957.992-.05.129-.129.234-.164.234s-.199-.113-.367-.25l-.293-.25-.168.16c-.344.329-.344.399.012.727l.328.293-1.684 1.992c-1.62 1.93-1.68 2-1.543 2.106l.415.34.28.226 1.641-1.965a121 121 0 0 1 1.7-2c.035-.02.156.059.277.164l.215.207.246-.285.242-.285-.289-.273-.281-.27.113-.23c.504-.985 1.371-1.184 2.078-.477.512.512 1.113 1.793 1.492 3.191.18.657.215.723.559 1.036.2.187.383.343.406.343.063 0-.12-.957-.363-1.89-.523-2.032-1.258-3.23-2.273-3.73-.528-.259-1.208-.302-1.622-.106m0 0" style="stroke:none;fill-rule:nonzero;fill:red;fill-opacity:1"/><path d="m95.168 21.172-.262.27 1.32 1.316 1.32 1.32-.933.938c-.707.71-1 .949-1.164.976-.644.11-1.328-.387-1.328-.957 0-.715.715-1.285 1.305-1.043.222.094.484.36.656.656.074.118.102.102.281-.14l.207-.274-.136-.246c-.293-.547-1.184-1.004-1.786-.918-.87.114-1.476.801-1.472 1.66.008.743.46 1.391 1.23 1.762l.492.235-.527.53-.539.528.34.344c.183.183.367.344.414.344.035 0 .89-.82 1.89-1.825l1.813-1.82.445.43.266-.274.262-.261-1.914-1.918-1.914-1.907ZM23.547 21.863l-.39.395-1.844-.23c-1.102-.133-1.864-.2-1.899-.157-.035.035-.086.234-.117.434l-.05.379h1.651c.907 0 1.649.023 1.649.05 0 .032-.09.153-.207.274l-.207.21.238.29.242.285.309-.309c.172-.164.328-.3.355-.3.024 0 .836.851 1.809 1.894l1.762 1.89.265-.206a3 3 0 0 0 .39-.356c.138-.148.138-.148-.245-.554-1.832-1.946-3.11-3.34-3.125-3.415-.012-.05.078-.167.199-.253l.23-.164-.269-.27c-.152-.156-.293-.277-.316-.277-.02 0-.215.175-.43.39m0 0" style="stroke:none;fill-rule:nonzero;fill:red;fill-opacity:1"/><path d="m19.77 25.844-1.942 2.234.246.23c.145.126.281.235.317.235.027 0 .68-.723 1.441-1.602l1.387-1.597.215.176c.406.343.757.668.757.703 0 .02-.472.586-1.05 1.257-.578.66-1.078 1.278-1.106 1.356-.078.2.05.406.285.473.293.086 1.59.054 1.82-.04.294-.12.247-.328-.163-.703-.2-.187-.348-.359-.344-.394.031-.086 1.156-1.41 1.203-1.41.02 0 .547.445 1.176.996s1.16.992 1.18.992c.054-.008.64-.707.64-.766 0-.035-.863-.808-1.926-1.726-1.058-.922-1.93-1.707-1.93-1.742 0-.043.087-.16.188-.266l.176-.187-.277-.227c-.157-.121-.301-.223-.32-.223-.016 0-.907 1.008-1.973 2.23M99.242 25.266c-.144.12-.265.25-.265.293s.128.226.285.414c.156.183.285.355.285.382 0 .024-.106.086-.234.145-.473.191-.75.773-.665 1.36.067.417.43.953.786 1.132l.273.145-.168.09c-.254.144-.555.125-.953-.07-.48-.223-.625-.4-.664-.821l-.031-.356-.309-.05c-.555-.082-.562-.082-.656.758-.09.855-.114 2.03-.051 2.527l.05.328h.95l-.027-.965c-.02-.586-.008-.965.039-.965.039 0 .125.067.191.137.07.078.293.207.492.293.473.207 1.356.176 1.797-.05.38-.2.781-.63.953-1.013l.145-.308.156.215.164.218.278-.21c.148-.122.269-.254.269-.29 0-.046-2.242-2.878-2.777-3.503-.028-.032-.164.043-.313.164m1.184 2.093c.101.09.222.297.273.461.078.258.07.336-.039.559-.11.242-.125.25-.418.215-.652-.086-1.023-.907-.582-1.258.254-.2.54-.184.766.023M102.32 29.02c-.148.101-.27.214-.27.25 0 .043.434.707.962 1.496.535.777.984 1.457 1 1.515.031.055-.364.364-1.043.824-1.063.73-1.086.739-1.43.708-.621-.063-1.125-.633-1.035-1.168.094-.48.594-.887 1.101-.887.364 0 .637.215.829.656l.156.352.265-.239.266-.234-.137-.293c-.441-.965-1.53-1.437-2.398-1.035-.367.164-.793.633-.887.984-.238.844.18 1.824.961 2.278.184.109.305.214.27.242-.032.031-.309.222-.61.426-.308.199-.558.382-.558.406 0 .113.55.804.62.777.052-.012 1.024-.656 2.161-1.426 1.133-.765 2.086-1.394 2.105-1.394s.114.113.207.25l.172.25.301-.223c.164-.12.293-.25.277-.277-.043-.113-2.949-4.422-2.984-4.422-.023 0-.156.086-.3.184M14.734 33.059c-.05.09-.285.484-.507.875-.23.394-.473.816-.551.945l-.133.226.328.196c.176.097.332.18.348.164s.105-.18.215-.371c.113-.188.222-.336.257-.336.028 0 1.028.562 2.223 1.258 1.191.683 2.2 1.254 2.234 1.261.086.024.559-.793.516-.87-.023-.036-1.039-.634-2.25-1.337l-2.21-1.277.144-.277c.148-.301.16-.293-.243-.508-.25-.137-.25-.137-.37.05M105.355 33.879c-.273.156-.3.191-.222.328.047.086.508.945 1.035 1.895.531.957.953 1.75.937 1.753-.113.094-.855.48-.87.465l-.294-.527c-.984-1.828-1.12-2.027-1.43-2.18-.777-.375-1.519.051-2.132 1.207-.246.473-.688 1.68-.688 1.887 0 .086.387.281.707.352.067.011.145-.145.235-.48.203-.724.531-1.372.902-1.767.336-.355.582-.433.813-.253.109.09 1.199 2.004 1.199 2.113 0 .027-.633.398-1.406.828-.778.43-1.45.809-1.493.844-.062.043-.023.172.13.449.113.215.234.406.269.43.035.02 1.086-.524 2.328-1.215a92 92 0 0 1 2.281-1.238c.004.015.07.132.137.253.133.278.207.282.555.07l.265-.163-1.422-2.559c-.777-1.406-1.441-2.586-1.476-2.613-.031-.035-.195.02-.36.12M13.055 35.844c-.114.25-.348.761-.535 1.156-.18.387-.329.715-.329.73 0 .036.559.313.63.313.034 0 .136-.164.226-.363.094-.203.195-.375.223-.395.035-.015.433.145.898.363.844.395.844.395.824.622-.043.46-.164.671-.586 1.046-.422.368-.57.414-.57.172 0-.394-.633-.875-1.137-.875-.699 0-1.265.485-1.523 1.317a2.7 2.7 0 0 0 .015 1.59l.086.23.364-.18c.207-.105.379-.191.379-.199a3 3 0 0 0-.086-.473c-.137-.664-.02-1.07.351-1.253.434-.23 1.05.218 1.05.761a1.7 1.7 0 0 1-.108.543 3 3 0 0 0-.106.278c0 .015.168.03.383.03.371 0 .394-.007.437-.206.07-.344.43-.774.715-.867.219-.07.313-.063.578.039 1.07.406.801 1.5-.472 1.87a6 6 0 0 1-.965.157l-.57.043-.024.445-.02.45h.422c.23 0 .665-.067.957-.137 1.43-.364 2.13-1.07 2.13-2.156 0-.766-.337-1.336-.942-1.602a12 12 0 0 0-.336-.148c-.016-.016.043-.11.129-.215.078-.11.148-.266.148-.36s.028-.168.063-.168c.039 0 .539.22 1.117.5.578.27 1.07.5 1.098.5.031 0 .152-.203.273-.453l.223-.449-2.352-1.102c-1.457-.671-2.351-1.125-2.351-1.191 0-.055.05-.191.11-.309l.105-.207-.329-.148c-.187-.078-.343-.145-.363-.145-.015 0-.12.204-.23.446M107.586 40.727c-.238.109-.445.203-.461.214-.035.032.344.957.43 1.059.058.066.996-.3.996-.395 0-.105-.426-1.02-.48-1.042-.032-.004-.25.066-.485.164M104.496 42.043l-.441.2.222.53c.121.282.23.536.243.551.058.063 1.035-.379 1.007-.453-.293-.73-.449-1.043-.507-1.035-.043 0-.278.094-.524.207M10.04 50.742l-.321.98-2.156.071.851.605c.461.336.848.645.848.68 0 .043-.14.508-.32 1.035-.18.532-.32.973-.32.98 0 .016.296-.19.663-.464.356-.266.754-.559.875-.637l.223-.156.824.602c.457.332.844.605.863.605.016 0-.113-.45-.285-1.008-.18-.55-.308-1.008-.3-1.023.015-.004.406-.282.87-.621l.844-.598-1.094-.035-1.085-.035-.301-.95c-.164-.523-.313-.964-.328-.98-.012-.016-.172.414-.352.95M108.7 50.758l-.317.992-1.078.02-1.078.023.87.629.868.629-.344 1.035c-.195.57-.316 1.016-.266.973.051-.036.442-.329.887-.653l.797-.586.832.617c.457.344.848.606.863.59.016-.02-.113-.453-.293-.984-.171-.52-.3-.973-.285-1 .02-.031.406-.324.864-.652l.835-.598-1.078-.023-1.086-.02-.293-.941c-.164-.516-.312-.965-.343-.996-.02-.028-.184.402-.356.945M107.297 61.414c-.012.05-.035.285-.055.523l-.035.434.934.656.93.66-2.071 1-.047.512c-.02.285-.027.528-.012.543.012.016.684-.308 1.489-.722l1.46-.758 1.02.097c.567.047 1.04.082 1.04.082a4 4 0 0 0 .042-.476l.043-.48-.68-.051c-1.414-.106-1.27-.04-2.69-1.13-.7-.534-1.286-.976-1.302-.976-.023 0-.043.043-.066.086M9.59 61.664c-.985.05-1.785.102-1.79.117 0 .004.005.196.02.434l.028.422 1.265-.051c.692-.027 1.39-.063 1.563-.094.168-.02.3-.008.3.024 0 .035-.68.527-1.5 1.09l-1.5 1.03v.977h.38c.199 0 1.207-.047 2.23-.105 1.02-.059 1.96-.11 2.09-.11h.238l-.05-.449a5 5 0 0 0-.06-.449s-.714.035-1.577.086c-.864.043-1.586.07-1.602.055-.04-.036-.156.046 1.566-1.125.844-.578 1.536-1.102 1.528-1.16 0-.055-.008-.262-.012-.454l-.016-.359-.656.008c-.363.008-1.465.058-2.445.113M10.477 66.352c-1.235.199-2.258.363-2.27.37-.027.02.535 3.614.578 3.65.027.026.676-.079.727-.13.015-.012-.063-.613-.184-1.336-.117-.722-.203-1.328-.187-1.344.043-.039 1.293-.234 1.324-.199.012.016.11.563.21 1.215l.188 1.192.356-.047c.199-.024.37-.059.394-.075.028-.027-.25-1.968-.32-2.293-.035-.14.004-.156.512-.234.3-.043.558-.07.574-.062.004.011.098.562.207 1.234.098.664.2 1.25.21 1.293.017.059.122.062.368.023.184-.035.356-.082.371-.101.043-.035.012-.242-.316-2.344-.176-1.113-.2-1.191-.344-1.184-.082.004-1.164.172-2.398.372M107.621 66.266c-.558.25-.844.629-1.043 1.382-.473 1.754.633 3.11 2.543 3.122.52.007.672-.02 1.055-.192.836-.371 1.285-1.121 1.355-2.215.031-.593-.105-1.347-.297-1.64-.07-.11-.308-.188-1.027-.328l-.937-.188-.079.363c-.394 1.953-.406 1.75.141 1.782l.316.011.102-.523.105-.52.293.051a1.4 1.4 0 0 1 .344.078c.09.051.2.559.2.957 0 .586-.223.973-.723 1.23-.356.192-.43.208-.906.165-.938-.078-1.56-.48-1.731-1.121a1.276 1.276 0 0 1 .879-1.594c.102-.027.121-.121.121-.508 0-.457 0-.465-.191-.465-.114 0-.344.075-.52.153M13.277 70.137c-.23.047-.293.097-.273.183.11.368.336 1.317.316 1.328-.015.008-.906.235-1.992.504l-1.965.489.098.43c.05.242.11.449.125.464.02.016.898-.191 1.953-.457 1.059-.266 1.957-.465 1.996-.441.027.027.121.297.192.613.171.77.156.758.597.648.29-.062.367-.113.34-.207a63 63 0 0 1-.402-1.613c-.485-2.008-.492-2.035-.594-2.027-.05.008-.219.043-.39.086M106.762 71.164c-.457.164-1.012.742-1.215 1.27-.192.511-.262 1.343-.149 1.695.243.726.829 1.262 1.723 1.555 1.742.582 3.172-.38 3.27-2.2.03-.55.015-.62-.2-1.054-.265-.547-.707-.938-1.336-1.18-.55-.215-1.628-.258-2.093-.086m1.62.992c1.032.352 1.458 1.18 1.032 2.008-.379.758-1.363.922-2.422.406-.508-.25-.742-.57-.785-1.07-.102-1.215.84-1.793 2.176-1.344M9.934 75.129l.171.45.606.019.61.023.327.942.336.945-.445.398-.441.403.164.476c.086.266.187.473.215.457.164-.066 3.859-3.437 3.859-3.523 0-.055-.066-.278-.145-.489l-.148-.386-.586-.043a79 79 0 0 0-2.637-.078l-2.058-.043Zm4.171.55c-.05.141-1.43 1.235-1.48 1.176-.055-.062-.434-1.097-.434-1.19 0-.032.434-.052.973-.052.535 0 .953.032.941.067M108.191 77.77c-.207.601-.398 1.125-.421 1.152-.028.027-.899-.234-1.934-.594-1.031-.351-1.887-.644-1.895-.644-.03 0-.324.879-.3.894.043.043 4.43 1.535 4.5 1.535.05 0 .336-.718.636-1.597l.551-1.61-.328-.105a3 3 0 0 0-.379-.117c-.031 0-.223.496-.43 1.086M12.586 79.105c-.645.403-.828.989-.559 1.758.278.782.973 1.207 1.692 1.043.344-.078 3.379-1.32 3.492-1.426.086-.085-.293-.886-.398-.843-.051.02-.778.32-1.622.675-1.906.801-1.937.81-2.214.532-.352-.36-.258-.79.242-1.067.129-.07.12-.09-.07-.441-.114-.2-.235-.367-.278-.367-.035 0-.164.058-.285.136M103.57 79.664c-1.007.352-1.75 1.844-1.457 2.922.184.684.844 1.316 1.778 1.68.601.242 1.421.226 1.914-.024 1.129-.586 1.672-2.164 1.11-3.25-.161-.305-.638-.785-1.009-1.008-.703-.414-1.703-.55-2.336-.32m1.528 1.059c.222.101.515.261.644.363.692.527.684 1.605-.023 2.144-.477.368-1.285.297-2.043-.18-.64-.405-.899-1.007-.7-1.616.106-.329.465-.735.75-.868.301-.136.88-.074 1.372.157M15.477 82.223c-1.157.57-2.137 1.043-2.165 1.054-.085.028.317.836.415.836.035 0 1.043-.468 2.23-1.05l2.156-1.047-.215-.414c-.117-.23-.238-.415-.265-.41-.028 0-1 .464-2.156 1.03M100.777 83.805l-.222.39.203.121c.11.063.734.426 1.383.797.656.371 1.195.7 1.195.73 0 .036-.379.055-.844.055-.472 0-1.328.024-1.922.043l-1.07.051-.223.403-.215.398 2.114 1.227 2.12 1.222.196-.328c.106-.187.2-.371.2-.406 0-.043-.614-.43-1.364-.856l-1.36-.789.739-.043a52 52 0 0 1 1.875-.058l1.145-.004.234-.387c.121-.215.23-.414.23-.457 0-.035-.472-.344-1.05-.68-.586-.328-1.528-.879-2.102-1.21L101 83.421ZM18.363 84.68c-.75.343-.898.992-.535 2.277.258.906.262 1.016.086 1.234-.102.133-.207.172-.437.172-.258 0-.336-.039-.57-.297-.466-.496-.532-1.144-.145-1.488.191-.172.187-.2-.121-.613l-.27-.363-.293.328c-.535.586-.594 1.312-.156 2.136.312.598.812 1.082 1.203 1.192a1.555 1.555 0 0 0 1.688-.637c.222-.328.222-.941-.008-1.726-.25-.868-.27-1.024-.192-1.223.149-.395.645-.277.973.215.262.406.293.664.105.996l-.156.289.227.344c.129.191.25.363.265.379.043.062.391-.325.528-.582.265-.52.11-1.305-.399-1.997-.5-.687-1.187-.925-1.793-.636M98.32 87.64l-.265.38.785.574.781.57-.578.793c-.316.441-.582.8-.594.8-.008 0-.367-.257-.793-.566l-.781-.562-.277.394c-.149.211-.262.399-.258.403.238.187 3.82 2.781 3.879 2.8.043.016.207-.132.36-.331.265-.36.269-.38.14-.473-.07-.059-.45-.328-.828-.606-.387-.273-.715-.523-.735-.55-.035-.067 1.043-1.575 1.137-1.582.027 0 .406.257.832.574.43.312.809.578.844.594.07.011.578-.622.574-.715 0-.059-3.79-2.825-3.902-2.86-.036-.004-.18.157-.32.364M20.336 88.516c-1.836 1.382-2.074 1.656-2.074 2.37 0 .665.765 1.794 1.394 2.052.336.14.871.124 1.215-.032.219-.097 2.684-1.879 2.992-2.156.086-.078-.449-.793-.562-.75-.051.012-.559.387-1.125.816-1.563 1.192-1.785 1.329-2.106 1.278-.5-.078-.98-.801-.847-1.29.054-.245.312-.476 1.574-1.425a55 55 0 0 0 1.246-.95c.086-.081.055-.144-.168-.449-.148-.203-.293-.367-.312-.359-.032 0-.579.41-1.227.895M22.863 92.586c-.855.77-1.672 1.5-1.8 1.629l-.235.226.926 1.024c1.066 1.18 1.3 1.363 1.758 1.414.87.098 1.687-.715 1.465-1.48a2 2 0 0 1-.07-.286c0-.02.183-.027.406-.011.343.02.457-.008.656-.145.531-.352.687-1.023.379-1.594-.137-.258-1.735-2.113-1.864-2.164-.03-.004-.757.617-1.62 1.387m2.621.922c.07.113.137.27.137.34 0 .203-.387.55-.601.55-.207 0-.594-.32-1.06-.878l-.296-.348.426-.387.422-.383.414.45c.23.242.48.535.558.656m-2.035.62c.715.802.863 1.13.672 1.493-.129.238-.473.371-.746.277-.227-.07-1.258-1.12-1.258-1.27 0-.077.86-.87.945-.87.02 0 .2.172.387.37M95.605 91.43c-.664.18-1.293.8-1.535 1.507-.164.493-.101 1.2.157 1.668.273.5.87 1.082 1.414 1.38.406.214.492.238 1.05.238.5 0 .664-.032.93-.172.77-.399 1.336-1.317 1.262-2.051-.035-.371-.297-1.027-.414-1.027-.035 0-.227.097-.422.218-.277.172-.348.258-.313.344.32.758.309 1.078-.078 1.473-.508.508-1.148.457-1.914-.145-.98-.773-1.172-1.543-.55-2.207.269-.293.277-.293.792-.293l.512-.008.203-.398.207-.406-.238-.074c-.414-.125-.719-.141-1.063-.051ZM91.5 95.262l-1.309 1.218 1.48 1.582c.806.876 1.556 1.68 1.673 1.793l.195.207.738-.675c.407-.38 1.02-.95 1.364-1.278l.636-.601-.285-.278-.289-.273-.996.934-1 .937-.945-1 .55-.523c.31-.278.715-.66.915-.848l.359-.336-.281-.285-.278-.285-.879.812c-.476.45-.902.82-.93.82-.034 0-.218-.175-.406-.39l-.343-.395.594-.554c.328-.309.765-.715.972-.91l.38-.34-.274-.281c-.141-.149-.286-.27-.309-.27-.02.008-.621.55-1.332 1.219M25.879 96.227c-.902 1.003-1.625 1.832-1.61 1.835.024.008.18.153.356.325l.328.308.707-.773c.39-.422.73-.774.758-.774.031 0 .375.29.766.637l.714.63-.707.784c-.394.43-.714.809-.707.828.008.032.157.188.344.352l.328.3 1.39-1.542c.767-.852 1.5-1.672 1.638-1.825l.242-.277-.313-.32c-.172-.172-.328-.317-.36-.317-.026 0-.331.325-.675.707l-.629.711-.402-.351c-.211-.188-.547-.488-.75-.656l-.356-.317.664-.715.657-.71-.356-.34c-.195-.176-.36-.329-.37-.32-.016 0-.759.82-1.657 1.82M88.32 97.777l-1.472 1.153.222.304c.121.172.243.309.266.309.027 0 .297-.2.605-.445.309-.243.57-.403.594-.364l1.254 1.618c1.324 1.691 1.211 1.613 1.703 1.175l.27-.234-1.25-1.598c-.684-.89-1.25-1.61-1.25-1.617 0-.008.258-.215.574-.457l.578-.441-.23-.285c-.121-.153-.258-.282-.297-.274-.051 0-.754.524-1.567 1.156M29.922 99.535c-1.188.735-2.18 1.363-2.211 1.387-.047.05.023.113.5.45l.266.194.484-.324.488-.328.801.602c.883.66.848.586.605 1.27a1.7 1.7 0 0 0-.093.401c0 .16.781.754.824.626.098-.293 1.32-4.864 1.32-4.942s-.73-.7-.8-.68c-.016 0-.993.61-2.184 1.344m1.656.8c-.144.485-.273.9-.285.915-.016.012-.273-.156-.574-.387l-.551-.406.816-.527c.442-.285.82-.508.836-.5.012.011-.101.422-.242.906M83.75 100.813c-.742.46-1.344.863-1.344.902 0 .058 2.387 3.933 2.508 4.07.027.035.219-.043.434-.172.207-.136.386-.25.398-.258.012-.003-.219-.398-.52-.878-.3-.477-.519-.899-.5-.934s.239-.184.485-.328c.242-.149.61-.38.816-.508l.371-.238-.191-.317c-.11-.183-.215-.324-.242-.324-.035 0-.414.223-.86.5-.445.274-.82.5-.851.5-.047 0-.633-.887-.633-.957 0-.012.45-.305 1-.648l1-.621-.18-.293c-.093-.164-.214-.309-.265-.317s-.692.36-1.426.82M34.586 100.438c-.363.124-.723.511-.824.882-.14.528.129 1.13.789 1.758.426.402.71.817.71 1.016 0 .449-.597.656-1.124.383-.532-.27-.77-.7-.66-1.184l.058-.258-.828-.414-.094.227c-.144.332-.125 1.039.035 1.34.286.546.989 1.054 1.715 1.238.442.125.727.097 1.114-.098.32-.164.457-.316.636-.715.309-.68.157-1.105-.738-2.058-.613-.66-.734-.88-.648-1.149.109-.336.777-.25 1.214.164.223.207.25.278.25.586v.352l.391.215c.461.242.5.222.582-.309.07-.484-.07-.848-.5-1.273-.652-.625-1.5-.918-2.078-.704M80.313 102.605c-.543.18-1.141.582-1.399.938-.289.39-.394.828-.352 1.45.063.964.766 2.07 1.543 2.429.258.121.473.156.907.156.508 0 .636-.027 1.058-.234.887-.438 1.407-1.18 1.407-2.008 0-.734-.516-1.852-1.079-2.32a2.18 2.18 0 0 0-2.085-.41m1.214.946c.485.3.95 1.207.95 1.855 0 .496-.172.828-.551 1.067-.395.25-.723.312-1.098.21-.594-.16-1.25-1.09-1.328-1.882-.102-1.059 1.121-1.809 2.027-1.25M39.14 104.172c-.75 1.777-.804 1.957-.804 2.387 0 .656.363 1.105 1.21 1.511.403.196.544.223 1.044.223.523 0 .601-.023.84-.2.14-.109.34-.335.441-.515.293-.492 1.469-3.27 1.414-3.32-.074-.067-.828-.363-.844-.344a100 100 0 0 0-.57 1.344 51 51 0 0 1-.723 1.656c-.18.352-.464.559-.757.559-.243-.008-.707-.239-.914-.457-.301-.336-.243-.614.457-2.258.343-.809.64-1.5.664-1.551.023-.055-.121-.156-.371-.273a4 4 0 0 0-.457-.176c-.024 0-.31.637-.63 1.414M75.875 104.5c-.34.105-.504.191-.54.293-.03.078-.144.57-.253 1.086-.113.523-.227.95-.262.95-.05 0-.343-.25-1.535-1.306-.152-.136-.156-.136-.715.04-.308.101-1.37.359-2.36.558-.991.207-1.835.39-1.87.414-.098.063.066.809.172.766.164-.067 1.32-.278 1.351-.25.004.011.207.914.43 1.992.227 1.078.418 1.973.426 1.977.015.023.844-.184.879-.22.023-.023-.149-.905-.371-1.972-.223-1.07-.38-1.965-.344-2 .031-.027.344-.105.695-.18l.629-.136-.05-.348c-.036-.293-.032-.344.05-.285.05.035.621.508 1.27 1.043l1.187.973.297.968c.168.532.328.965.36.965.093 0 .757-.226.812-.277.031-.024-.09-.473-.262-.996l-.308-.946.414-1.625c.23-.89.406-1.62.398-1.629 0-.003-.227.06-.5.145M43.555 105.379c-.828 2.672-1.157 3.75-1.137 3.77.066.058.785.257.816.23.02-.016.227-.672.47-1.45.237-.784.452-1.452.48-1.48.03-.027.222.602.43 1.395.62 2.406.515 2.164 1.015 2.308.242.063.45.098.469.075.05-.04 1.367-4.301 1.39-4.497.016-.117-.054-.168-.383-.265l-.406-.125-.215.695c-.113.38-.328 1.078-.476 1.559-.153.484-.281.863-.293.847-.024-.011-.242-.855-.512-1.863l-.476-1.836-.426-.137c-.239-.07-.438-.132-.446-.132-.007 0-.14.406-.3.906M47.805 108.094c-.317 1.25-.578 2.32-.594 2.386-.027.086.074.141.414.227.254.066.465.102.48.086.016-.016.293-1.086.622-2.379l.586-2.352-.399-.09a7 7 0 0 1-.473-.117c-.043-.02-.316.946-.636 2.239M49.621 106.145c0 .14.64 4.925.672 5.011.02.043.25.121.512.172.449.086.484.086.578-.043.058-.07.672-1.058 1.367-2.183.691-1.13 1.277-2.004 1.285-1.938.012.059-.078 1.102-.207 2.316-.129 1.211-.215 2.22-.2 2.235.056.055 3.505.406 3.606.37.063-.026.102-.155.102-.397 0-.293-.023-.36-.125-.36-.246-.008-2.527-.27-2.563-.297-.027-.039.114-1.297.149-1.332.016-.011.46.028.996.086a18 18 0 0 0 1.219.113c.238 0 .25-.011.25-.234 0-.121.023-.293.043-.371.035-.145-.02-.152-1.192-.273a33 33 0 0 1-1.25-.141c-.015-.024.106-1.063.125-1.094.016-.015.602.043 1.309.121.703.07 1.289.121 1.3.11.016-.016.044-.188.071-.387l.043-.36-.277-.039c-.657-.101-3.094-.324-3.422-.316a4 4 0 0 1-.676-.043l-.324-.05-.93 1.609c-.504.882-.95 1.613-.977 1.613-.035 0-.058-.043-.058-.094 0-.136-.426-3.648-.45-3.664-.007-.008-.226-.055-.492-.12-.37-.08-.484-.087-.484-.02M67.2 106.695c-.173.035-.325.07-.337.086-.023.02.7 4.29.793 4.66.028.145.051.145.477.067.437-.078.453-.086.43-.293-.02-.223-.708-4.18-.762-4.445-.047-.172-.102-.176-.602-.075M63.727 107.113c-.508.168-.786.41-.98.844-.173.371-.134.766.097 1.133.234.379.656.582 1.5.71.949.145 1.21.235 1.34.473.101.172.101.211-.008.442-.156.32-.492.492-.985.5-.468 0-.734-.145-.93-.535l-.14-.266-.394.094c-.47.105-.493.12-.442.336.121.469.633.992 1.13 1.129.562.164 1.605.011 2.12-.301.735-.457.875-1.621.266-2.238-.29-.278-.696-.418-1.559-.536-.758-.097-1.035-.191-1.129-.37-.136-.243-.015-.485.317-.63.562-.253 1.156-.132 1.324.274l.086.2.457-.071c.508-.074.527-.11.367-.492-.121-.309-.543-.664-.879-.758-.406-.114-1.078-.086-1.558.062M58.121 108.313c0 .585.02 1.695.047 2.464l.043 1.407h.906v-2.07h.344c.547.007.621.077 1.473 1.3l.48.7h.57c.57 0 .57 0 .485-.165-.258-.484-.957-1.418-1.242-1.676-.286-.253-.32-.308-.207-.34a3 3 0 0 0 .457-.206c.586-.297.82-1.122.507-1.743-.328-.64-.586-.718-2.414-.726h-1.449Zm2.863-.063c.157.191.18.621.036.805-.149.207-.45.273-1.18.273h-.7l-.035-.594c-.023-.32-.023-.613-.007-.64.02-.035.422-.051.894-.035.801.02.863.035.992.191m0 0" style="stroke:none;fill-rule:nonzero;fill:red;fill-opacity:1"/></svg>